<?xml version="1.0" encoding="us-ascii" standalone="no"?><svg xmlns="http://www.w3.org/2000/svg" xmlns:xlink="http://www.w3.org/1999/xlink" contentStyleType="text/css" height="822px" preserveAspectRatio="none" style="width:738px;height:822px;background:#FFFFFF;" version="1.1" viewBox="0 0 738 822" width="738px" zoomAndPan="magnify"><defs/><g><line style="stroke:#181818;stroke-width:0.5;stroke-dasharray:5.0,5.0;" x1="45" x2="45" y1="82.6094" y2="739.9922"/><line style="stroke:#181818;stroke-width:0.5;stroke-dasharray:5.0,5.0;" x1="180" x2="180" y1="82.6094" y2="739.9922"/><line style="stroke:#181818;stroke-width:0.5;stroke-dasharray:5.0,5.0;" x1="401.5" x2="401.5" y1="82.6094" y2="739.9922"/><line style="stroke:#181818;stroke-width:0.5;stroke-dasharray:5.0,5.0;" x1="693" x2="693" y1="82.6094" y2="739.9922"/><text fill="#000000" font-family="sans-serif" font-size="14" lengthAdjust="spacing" textLength="74" x="5" y="79.5332">Conducteur</text><ellipse cx="45" cy="13.5" fill="#E2E2F0" rx="8" ry="8" style="stroke:#181818;stroke-width:0.5;"/><path d="M45,21.5 L45,48.5 M32,29.5 L58,29.5 M45,48.5 L32,63.5 M45,48.5 L58,63.5 " fill="none" style="stroke:#181818;stroke-width:0.5;"/><text fill="#000000" font-family="sans-serif" font-size="14" lengthAdjust="spacing" textLength="74" x="5" y="753.5254">Conducteur</text><ellipse cx="45" cy="765.1016" fill="#E2E2F0" rx="8" ry="8" style="stroke:#181818;stroke-width:0.5;"/><path d="M45,773.1016 L45,800.1016 M32,781.1016 L58,781.1016 M45,800.1016 L32,815.1016 M45,800.1016 L58,815.1016 " fill="none" style="stroke:#181818;stroke-width:0.5;"/><rect fill="#E2E2F0" height="31.6094" rx="2.5" ry="2.5" style="stroke:#181818;stroke-width:0.5;" width="84" x="138" y="50"/><text fill="#000000" font-family="sans-serif" font-size="14" lengthAdjust="spacing" textLength="70" x="145" y="71.5332">App Mobile</text><rect fill="#E2E2F0" height="31.6094" rx="2.5" ry="2.5" style="stroke:#181818;stroke-width:0.5;" width="84" x="138" y="738.9922"/><text fill="#000000" font-family="sans-serif" font-size="14" lengthAdjust="spacing" textLength="70" x="145" y="760.5254">App Mobile</text><rect fill="#E2E2F0" height="31.6094" rx="2.5" ry="2.5" style="stroke:#181818;stroke-width:0.5;" width="137" x="333.5" y="50"/><text fill="#000000" font-family="sans-serif" font-size="14" lengthAdjust="spacing" textLength="123" x="340.5" y="71.5332">Flask API (Serveur)</text><rect fill="#E2E2F0" height="31.6094" rx="2.5" ry="2.5" style="stroke:#181818;stroke-width:0.5;" width="137" x="333.5" y="738.9922"/><text fill="#000000" font-family="sans-serif" font-size="14" lengthAdjust="spacing" textLength="123" x="340.5" y="760.5254">Flask API (Serveur)</text><text fill="#000000" font-family="sans-serif" font-size="14" lengthAdjust="spacing" textLength="82" x="649" y="79.5332">Base MySQL</text><path d="M675,29 C675,19 693,19 693,19 C693,19 711,19 711,29 L711,55 C711,65 693,65 693,65 C693,65 675,65 675,55 L675,29 " fill="#E2E2F0" style="stroke:#181818;stroke-width:1.5;"/><path d="M675,29 C675,39 693,39 693,39 C693,39 711,39 711,29 " fill="none" style="stroke:#181818;stroke-width:1.5;"/><text fill="#000000" font-family="sans-serif" font-size="14" lengthAdjust="spacing" textLength="82" x="649" y="753.5254">Base MySQL</text><path d="M675,766.6016 C675,756.6016 693,756.6016 693,756.6016 C693,756.6016 711,756.6016 711,766.6016 L711,792.6016 C711,802.6016 693,802.6016 693,802.6016 C693,802.6016 675,802.6016 675,792.6016 L675,766.6016 " fill="#E2E2F0" style="stroke:#181818;stroke-width:1.5;"/><path d="M675,766.6016 C675,776.6016 693,776.6016 693,776.6016 C693,776.6016 711,776.6016 711,766.6016 " fill="none" style="stroke:#181818;stroke-width:1.5;"/><polygon fill="#181818" points="168,110.9609,178,114.9609,168,118.9609,172,114.9609" style="stroke:#181818;stroke-width:1.0;"/><line style="stroke:#181818;stroke-width:1.0;" x1="45" x2="174" y1="114.9609" y2="114.9609"/><text fill="#000000" font-family="sans-serif" font-size="13" lengthAdjust="spacing" textLength="110" x="52" y="110.1045">Lancer l'application</text><polygon fill="#181818" points="390,141.3125,400,145.3125,390,149.3125,394,145.3125" style="stroke:#181818;stroke-width:1.0;"/><line style="stroke:#181818;stroke-width:1.0;" x1="180" x2="396" y1="145.3125" y2="145.3125"/><text fill="#000000" font-family="sans-serif" font-size="13" lengthAdjust="spacing" textLength="198" x="187" y="140.4561">Requ&#234;te login (ID + mot de passe)</text><polygon fill="#181818" points="681,171.6641,691,175.6641,681,179.6641,685,175.6641" style="stroke:#181818;stroke-width:1.0;"/><line style="stroke:#181818;stroke-width:1.0;" x1="402" x2="687" y1="175.6641" y2="175.6641"/><text fill="#000000" font-family="sans-serif" font-size="13" lengthAdjust="spacing" textLength="110" x="409" y="170.8076">SELECT utilisateur</text><polygon fill="#181818" points="413,202.0156,403,206.0156,413,210.0156,409,206.0156" style="stroke:#181818;stroke-width:1.0;"/><line style="stroke:#181818;stroke-width:1.0;stroke-dasharray:2.0,2.0;" x1="407" x2="692" y1="206.0156" y2="206.0156"/><text fill="#000000" font-family="sans-serif" font-size="13" lengthAdjust="spacing" textLength="48" x="419" y="201.1592">R&#233;sultat</text><polygon fill="#181818" points="191,232.3672,181,236.3672,191,240.3672,187,236.3672" style="stroke:#181818;stroke-width:1.0;"/><line style="stroke:#181818;stroke-width:1.0;stroke-dasharray:2.0,2.0;" x1="185" x2="401" y1="236.3672" y2="236.3672"/><text fill="#000000" font-family="sans-serif" font-size="13" lengthAdjust="spacing" textLength="126" x="197" y="231.5107">R&#233;sultat (OK / Erreur)</text><polygon fill="#181818" points="168,262.7188,178,266.7188,168,270.7188,172,266.7188" style="stroke:#181818;stroke-width:1.0;"/><line style="stroke:#181818;stroke-width:1.0;" x1="45" x2="174" y1="266.7188" y2="266.7188"/><text fill="#000000" font-family="sans-serif" font-size="13" lengthAdjust="spacing" textLength="111" x="52" y="261.8623">Consulter missions</text><polygon fill="#181818" points="390,293.0703,400,297.0703,390,301.0703,394,297.0703" style="stroke:#181818;stroke-width:1.0;"/><line style="stroke:#181818;stroke-width:1.0;" x1="180" x2="396" y1="297.0703" y2="297.0703"/><text fill="#000000" font-family="sans-serif" font-size="13" lengthAdjust="spacing" textLength="86" x="187" y="292.2139">GET /missions</text><polygon fill="#181818" points="681,323.4219,691,327.4219,681,331.4219,685,327.4219" style="stroke:#181818;stroke-width:1.0;"/><line style="stroke:#181818;stroke-width:1.0;" x1="402" x2="687" y1="327.4219" y2="327.4219"/><text fill="#000000" font-family="sans-serif" font-size="13" lengthAdjust="spacing" textLength="267" x="409" y="322.5654">SELECT missions WHERE conducteur_id = X</text><polygon fill="#181818" points="413,353.7734,403,357.7734,413,361.7734,409,357.7734" style="stroke:#181818;stroke-width:1.0;"/><line style="stroke:#181818;stroke-width:1.0;stroke-dasharray:2.0,2.0;" x1="407" x2="692" y1="357.7734" y2="357.7734"/><text fill="#000000" font-family="sans-serif" font-size="13" lengthAdjust="spacing" textLength="84" x="419" y="352.917">Liste missions</text><polygon fill="#181818" points="191,384.125,181,388.125,191,392.125,187,388.125" style="stroke:#181818;stroke-width:1.0;"/><line style="stroke:#181818;stroke-width:1.0;stroke-dasharray:2.0,2.0;" x1="185" x2="401" y1="388.125" y2="388.125"/><text fill="#000000" font-family="sans-serif" font-size="13" lengthAdjust="spacing" textLength="84" x="197" y="383.2686">Liste missions</text><polygon fill="#181818" points="168,414.4766,178,418.4766,168,422.4766,172,418.4766" style="stroke:#181818;stroke-width:1.0;"/><line style="stroke:#181818;stroke-width:1.0;" x1="45" x2="174" y1="418.4766" y2="418.4766"/><text fill="#000000" font-family="sans-serif" font-size="13" lengthAdjust="spacing" textLength="102" x="52" y="413.6201">D&#233;marrer mission</text><polygon fill="#181818" points="168,444.8281,178,448.8281,168,452.8281,172,448.8281" style="stroke:#181818;stroke-width:1.0;"/><line style="stroke:#181818;stroke-width:1.0;" x1="45" x2="174" y1="448.8281" y2="448.8281"/><text fill="#000000" font-family="sans-serif" font-size="13" lengthAdjust="spacing" textLength="83" x="52" y="443.9717">Valider &#233;tapes</text><polygon fill="#181818" points="168,475.1797,178,479.1797,168,483.1797,172,479.1797" style="stroke:#181818;stroke-width:1.0;"/><line style="stroke:#181818;stroke-width:1.0;" x1="45" x2="174" y1="479.1797" y2="479.1797"/><text fill="#000000" font-family="sans-serif" font-size="13" lengthAdjust="spacing" textLength="94" x="52" y="474.3232">Cl&#244;turer mission</text><polygon fill="#181818" points="390,505.5313,400,509.5313,390,513.5313,394,509.5313" style="stroke:#181818;stroke-width:1.0;"/><line style="stroke:#181818;stroke-width:1.0;" x1="180" x2="396" y1="509.5313" y2="509.5313"/><text fill="#000000" font-family="sans-serif" font-size="13" lengthAdjust="spacing" textLength="120" x="187" y="504.6748">POST /missions/maj</text><polygon fill="#181818" points="681,535.8828,691,539.8828,681,543.8828,685,539.8828" style="stroke:#181818;stroke-width:1.0;"/><line style="stroke:#181818;stroke-width:1.0;" x1="402" x2="687" y1="539.8828" y2="539.8828"/><text fill="#000000" font-family="sans-serif" font-size="13" lengthAdjust="spacing" textLength="184" x="409" y="535.0264">UPDATE mission SET &#233;tat = ...</text><polygon fill="#181818" points="413,566.2344,403,570.2344,413,574.2344,409,570.2344" style="stroke:#181818;stroke-width:1.0;"/><line style="stroke:#181818;stroke-width:1.0;stroke-dasharray:2.0,2.0;" x1="407" x2="692" y1="570.2344" y2="570.2344"/><text fill="#000000" font-family="sans-serif" font-size="13" lengthAdjust="spacing" textLength="19" x="419" y="565.3779">OK</text><polygon fill="#181818" points="191,596.5859,181,600.5859,191,604.5859,187,600.5859" style="stroke:#181818;stroke-width:1.0;"/><line style="stroke:#181818;stroke-width:1.0;stroke-dasharray:2.0,2.0;" x1="185" x2="401" y1="600.5859" y2="600.5859"/><text fill="#000000" font-family="sans-serif" font-size="13" lengthAdjust="spacing" textLength="102" x="197" y="595.7295">Confirmation MAJ</text><polygon fill="#181818" points="390,626.9375,400,630.9375,390,634.9375,394,630.9375" style="stroke:#181818;stroke-width:1.0;"/><line style="stroke:#181818;stroke-width:1.0;" x1="180" x2="396" y1="630.9375" y2="630.9375"/><text fill="#000000" font-family="sans-serif" font-size="13" lengthAdjust="spacing" textLength="71" x="187" y="626.0811">POST /sync</text><polygon fill="#181818" points="681,657.2891,691,661.2891,681,665.2891,685,661.2891" style="stroke:#181818;stroke-width:1.0;"/><line style="stroke:#181818;stroke-width:1.0;" x1="402" x2="687" y1="661.2891" y2="661.2891"/><text fill="#000000" font-family="sans-serif" font-size="13" lengthAdjust="spacing" textLength="163" x="409" y="656.4326">INSERT / UPDATE donn&#233;es</text><polygon fill="#181818" points="413,687.6406,403,691.6406,413,695.6406,409,691.6406" style="stroke:#181818;stroke-width:1.0;"/><line style="stroke:#181818;stroke-width:1.0;stroke-dasharray:2.0,2.0;" x1="407" x2="692" y1="691.6406" y2="691.6406"/><text fill="#000000" font-family="sans-serif" font-size="13" lengthAdjust="spacing" textLength="19" x="419" y="686.7842">OK</text><polygon fill="#181818" points="191,717.9922,181,721.9922,191,725.9922,187,721.9922" style="stroke:#181818;stroke-width:1.0;"/><line style="stroke:#181818;stroke-width:1.0;stroke-dasharray:2.0,2.0;" x1="185" x2="401" y1="721.9922" y2="721.9922"/><text fill="#000000" font-family="sans-serif" font-size="13" lengthAdjust="spacing" textLength="139" x="197" y="717.1357">Synchronisation r&#233;ussie</text><!--SRC=[ZLFBJi905DttAsxO0370daGJXAf84QJus9bBE-hezE7CbCWdrRL_q1_p3YsF5ebkcfivP-vvj4LFHnBwKUWddcQ9j6AKcdiynb13hHV7C8uMNB0Qe2h6CkL2e7g7tdG83PV99QrehhbqOlceSO6AGUtSFCShzzR95vd9ikf6E6IVF0gjdGLedHLAq0K7Guz947MCOy4zr8PReCGpkbsOiOya-z8CHFJ2GsWC1t02GQJ1Pn2ZKgnf6QBPQuJfXcixTdyEYUQ2Arm7pw7MRccMgaHerFdTVLDR21gJ4NJ0bjBaBWBb4FaaUGK1LufcTInWSO4oRfdLU9Vs73fRzFSa6nWUhkoP3TvMx8dxS0gF1_4ShgYmyjPIyMMSeha9Nt9JgS3D-R5GWomDa4gHVn7lKN2VQ5cgCMR7InBPjqxszrKxcaxSlP8w0RvLYxgR3dfpUxE0UfklLJMrqswt3_gPZ0ux8NVFN0RvontthjUjh4BlLKQX-OoE6rF4gXeQthZsZB2DCv_-XIob4lvZfI8BCaiJ2iP-0000]--></g></svg>