<?xml version="1.0" encoding="us-ascii" standalone="no"?><svg xmlns="http://www.w3.org/2000/svg" xmlns:xlink="http://www.w3.org/1999/xlink" contentStyleType="text/css" height="1523px" preserveAspectRatio="none" style="width:734px;height:1523px;background:#FFFFFF;" version="1.1" viewBox="0 0 734 1523" width="734px" zoomAndPan="magnify"><defs/><g><!--cluster Application Mobile--><g id="cluster_Application Mobile"><rect fill="none" height="303" rx="2.5" ry="2.5" style="stroke:#181818;stroke-width:1.0;" width="689" x="39" y="1214"/><text fill="#000000" font-family="sans-serif" font-size="14" font-weight="bold" lengthAdjust="spacing" textLength="130" x="318.5" y="1230.5332">Application Mobile</text></g><!--cluster Page Web--><g id="cluster_Page Web"><rect fill="none" height="165" rx="2.5" ry="2.5" style="stroke:#181818;stroke-width:1.0;" width="679.5" x="48.5" y="1025"/><text fill="#000000" font-family="sans-serif" font-size="14" font-weight="bold" lengthAdjust="spacing" textLength="70" x="353.25" y="1041.5332">Page Web</text></g><!--cluster Application Desktop--><g id="cluster_Application Desktop"><rect fill="none" height="588" rx="2.5" ry="2.5" style="stroke:#181818;stroke-width:1.0;" width="692.5" x="35.5" y="413"/><text fill="#000000" font-family="sans-serif" font-size="14" font-weight="bold" lengthAdjust="spacing" textLength="140" x="311.75" y="429.5332">Application Desktop</text></g><!--cluster Application Gestion Mat?riel--><g id="cluster_Application Gestion Mat&#233;riel"><rect fill="none" height="173" rx="2.5" ry="2.5" style="stroke:#181818;stroke-width:1.0;" width="721" x="7" y="216"/><text fill="#000000" font-family="sans-serif" font-size="14" font-weight="bold" lengthAdjust="spacing" textLength="199" x="268" y="232.5332">Application Gestion Mat&#233;riel</text></g><!--cluster Application RH--><g id="cluster_Application RH"><rect fill="none" height="185" rx="2.5" ry="2.5" style="stroke:#181818;stroke-width:1.0;" width="692" x="36" y="7"/><text fill="#000000" font-family="sans-serif" font-size="14" font-weight="bold" lengthAdjust="spacing" textLength="102" x="331" y="23.5332">Application RH</text></g><!--entity Conducteur--><g id="elem_Conducteur"><ellipse cx="92" cy="1349" fill="#F1F1F1" rx="16" ry="16" style="stroke:#181818;stroke-width:0.5;"/><path d="M92,1369 C96,1369 99,1369 103,1365 C111,1365 119,1373 119,1381 L119,1385 C119,1389 115,1393 111,1393 L73,1393 C69,1393 65,1389 65,1385 L65,1381 C65,1373 73,1365 81,1365 C85,1369 88,1369 92,1369 " fill="#F1F1F1" style="stroke:#181818;stroke-width:0.5;"/><text fill="#000000" font-family="sans-serif" font-size="14" lengthAdjust="spacing" textLength="74" x="55" y="1408.0332">Conducteur</text></g><g id="elem_AuthMobile"><ellipse cx="643.4277" cy="1369.0855" fill="#F1F1F1" rx="68.4277" ry="16.0855" style="stroke:#181818;stroke-width:0.5;"/><text fill="#000000" font-family="sans-serif" font-size="14" lengthAdjust="spacing" textLength="83" x="598.9277" y="1373.6021">S'authentifier</text></g><g id="elem_Consulter missions"><ellipse cx="339.9202" cy="1481.784" fill="#F1F1F1" rx="81.9202" ry="18.784" style="stroke:#181818;stroke-width:0.5;"/><text fill="#000000" font-family="sans-serif" font-size="14" lengthAdjust="spacing" textLength="119" x="280.2512" y="1485.5629">Consulter missions</text></g><g id="elem_G&#233;olocalisation GPS"><ellipse cx="340.0408" cy="1408.2082" fill="#F1F1F1" rx="86.5408" ry="19.7082" style="stroke:#181818;stroke-width:0.5;"/><text fill="#000000" font-family="sans-serif" font-size="14" lengthAdjust="spacing" textLength="130" x="275.0408" y="1411.9367">G&#233;olocalisation GPS</text></g><g id="elem_Valider &#233;tapes"><ellipse cx="340.2113" cy="1337.1423" fill="#F1F1F1" rx="71.2113" ry="16.6423" style="stroke:#181818;stroke-width:0.5;"/><text fill="#000000" font-family="sans-serif" font-size="14" lengthAdjust="spacing" textLength="91" x="291.7113" y="1341.6589">Valider &#233;tapes</text></g><g id="elem_Cl&#244;turer mission"><ellipse cx="340.2256" cy="1267.9451" fill="#F1F1F1" rx="75.2256" ry="17.4451" style="stroke:#181818;stroke-width:0.5;"/><text fill="#000000" font-family="sans-serif" font-size="14" lengthAdjust="spacing" textLength="102" x="286.2256" y="1272.4617">Cl&#244;turer mission</text></g><!--entity Client--><g id="elem_Client"><ellipse cx="92" cy="1095" fill="#F1F1F1" rx="16" ry="16" style="stroke:#181818;stroke-width:0.5;"/><path d="M92,1115 C96,1115 99,1115 103,1111 C111,1111 119,1119 119,1127 L119,1131 C119,1135 115,1139 111,1139 L73,1139 C69,1139 65,1135 65,1131 L65,1127 C65,1119 73,1111 81,1111 C85,1115 88,1115 92,1115 " fill="#F1F1F1" style="stroke:#181818;stroke-width:0.5;"/><text fill="#000000" font-family="sans-serif" font-size="14" lengthAdjust="spacing" textLength="36" x="74" y="1154.0332">Client</text></g><g id="elem_AuthWeb"><ellipse cx="643.4277" cy="1110.0855" fill="#F1F1F1" rx="68.4277" ry="16.0855" style="stroke:#181818;stroke-width:0.5;"/><text fill="#000000" font-family="sans-serif" font-size="14" lengthAdjust="spacing" textLength="83" x="598.9277" y="1114.6021">S'authentifier</text></g><g id="elem_Passer commande"><ellipse cx="340.097" cy="1155.1194" fill="#F1F1F1" rx="81.097" ry="18.6194" style="stroke:#181818;stroke-width:0.5;"/><text fill="#000000" font-family="sans-serif" font-size="14" lengthAdjust="spacing" textLength="117" x="281.0843" y="1158.9982">Passer commande</text></g><g id="elem_Confirmer commande"><ellipse cx="340.1756" cy="1081.1351" fill="#F1F1F1" rx="88.6756" ry="20.1351" style="stroke:#181818;stroke-width:0.5;"/><text fill="#000000" font-family="sans-serif" font-size="14" lengthAdjust="spacing" textLength="135" x="272.6756" y="1084.8636">Confirmer commande</text></g><!--entity Gestionnaire--><g id="elem_Gestionnaire"><ellipse cx="92" cy="698" fill="#F1F1F1" rx="16" ry="16" style="stroke:#181818;stroke-width:0.5;"/><path d="M92,718 C96,718 99,718 103,714 C111,714 119,722 119,730 L119,734 C119,738 115,742 111,742 L73,742 C69,742 65,738 65,734 L65,730 C65,722 73,714 81,714 C85,718 88,718 92,718 " fill="#F1F1F1" style="stroke:#181818;stroke-width:0.5;"/><text fill="#000000" font-family="sans-serif" font-size="14" lengthAdjust="spacing" textLength="81" x="51.5" y="757.0332">Gestionnaire</text></g><g id="elem_AuthDesktop"><ellipse cx="643.4277" cy="721.0855" fill="#F1F1F1" rx="68.4277" ry="16.0855" style="stroke:#181818;stroke-width:0.5;"/><text fill="#000000" font-family="sans-serif" font-size="14" lengthAdjust="spacing" textLength="83" x="598.9277" y="725.6021">S'authentifier</text></g><g id="elem_G&#233;rer chantiers"><ellipse cx="340.1111" cy="968.2222" fill="#F1F1F1" rx="74.1111" ry="17.2222" style="stroke:#181818;stroke-width:0.5;"/><text fill="#000000" font-family="sans-serif" font-size="14" lengthAdjust="spacing" textLength="99" x="287.6111" y="972.7388">G&#233;rer chantiers</text></g><g id="elem_Planifier tourn&#233;es"><ellipse cx="340.1819" cy="898.1364" fill="#F1F1F1" rx="78.6819" ry="18.1364" style="stroke:#181818;stroke-width:0.5;"/><text fill="#000000" font-family="sans-serif" font-size="14" lengthAdjust="spacing" textLength="111" x="283.0947" y="902.3083">Planifier tourn&#233;es</text></g><g id="elem_Optimiser transferts"><ellipse cx="340.0066" cy="826.2013" fill="#F1F1F1" rx="84.0066" ry="19.2013" style="stroke:#181818;stroke-width:0.5;"/><text fill="#000000" font-family="sans-serif" font-size="14" lengthAdjust="spacing" textLength="124" x="278.0066" y="829.9298">Optimiser transferts</text></g><g id="elem_Visualiser KPI"><ellipse cx="339.957" cy="754.7914" fill="#F1F1F1" rx="69.457" ry="16.2914" style="stroke:#181818;stroke-width:0.5;"/><text fill="#000000" font-family="sans-serif" font-size="14" lengthAdjust="spacing" textLength="86" x="293.957" y="759.308">Visualiser KPI</text></g><g id="elem_Carte interactive"><ellipse cx="339.9763" cy="686.0953" fill="#F1F1F1" rx="75.9763" ry="17.5953" style="stroke:#181818;stroke-width:0.5;"/><text fill="#000000" font-family="sans-serif" font-size="14" lengthAdjust="spacing" textLength="104" x="285.0467" y="690.5957">Carte interactive</text></g><g id="elem_Traiter commandes"><ellipse cx="340.169" cy="614.0338" fill="#F1F1F1" rx="83.169" ry="19.0338" style="stroke:#181818;stroke-width:0.5;"/><text fill="#000000" font-family="sans-serif" font-size="14" lengthAdjust="spacing" textLength="122" x="279.169" y="617.7623">Traiter commandes</text></g><g id="elem_Affecter conducteurs"><ellipse cx="339.9661" cy="539.7932" fill="#F1F1F1" rx="86.9661" ry="19.7932" style="stroke:#181818;stroke-width:0.5;"/><text fill="#000000" font-family="sans-serif" font-size="14" lengthAdjust="spacing" textLength="131" x="274.4661" y="543.5217">Affecter conducteurs</text></g><g id="elem_Affecter v&#233;hicules"><ellipse cx="340.0785" cy="467.2157" fill="#F1F1F1" rx="79.0785" ry="18.2157" style="stroke:#181818;stroke-width:0.5;"/><text fill="#000000" font-family="sans-serif" font-size="14" lengthAdjust="spacing" textLength="112" x="282.6751" y="471.3395">Affecter v&#233;hicules</text></g><!--entity Assistant--><g id="elem_Assistant"><ellipse cx="92" cy="290" fill="#F1F1F1" rx="16" ry="16" style="stroke:#181818;stroke-width:0.5;"/><path d="M92,310 C96,310 99,310 103,306 C111,306 119,314 119,322 L119,326 C119,330 115,334 111,334 L73,334 C69,334 65,330 65,326 L65,322 C65,314 73,306 81,306 C85,310 88,310 92,310 " fill="#F1F1F1" style="stroke:#181818;stroke-width:0.5;"/><text fill="#000000" font-family="sans-serif" font-size="14" lengthAdjust="spacing" textLength="138" x="23" y="349.0332">Assistant Administratif</text></g><g id="elem_AuthMateriel"><ellipse cx="643.4277" cy="304.0855" fill="#F1F1F1" rx="68.4277" ry="16.0855" style="stroke:#181818;stroke-width:0.5;"/><text fill="#000000" font-family="sans-serif" font-size="14" lengthAdjust="spacing" textLength="83" x="598.9277" y="308.6021">S'authentifier</text></g><g id="elem_G&#233;rer disponibilit&#233; v&#233;hicules"><ellipse cx="340.2046" cy="348.9409" fill="#F1F1F1" rx="107.7046" ry="23.9409" style="stroke:#181818;stroke-width:0.5;"/><text fill="#000000" font-family="sans-serif" font-size="14" lengthAdjust="spacing" textLength="178" x="251.2046" y="352.6694">G&#233;rer disponibilit&#233; v&#233;hicules</text></g><g id="elem_G&#233;rer &#233;quipements"><ellipse cx="340.169" cy="271.0338" fill="#F1F1F1" rx="83.169" ry="19.0338" style="stroke:#181818;stroke-width:0.5;"/><text fill="#000000" font-family="sans-serif" font-size="14" lengthAdjust="spacing" textLength="122" x="279.169" y="274.7623">G&#233;rer &#233;quipements</text></g><!--entity AssistantRH--><g id="elem_AssistantRH"><ellipse cx="92" cy="87" fill="#F1F1F1" rx="16" ry="16" style="stroke:#181818;stroke-width:0.5;"/><path d="M92,107 C96,107 99,107 103,103 C111,103 119,111 119,119 L119,123 C119,127 115,131 111,131 L73,131 C69,131 65,127 65,123 L65,119 C65,111 73,103 81,103 C85,107 88,107 92,107 " fill="#F1F1F1" style="stroke:#181818;stroke-width:0.5;"/><text fill="#000000" font-family="sans-serif" font-size="14" lengthAdjust="spacing" textLength="80" x="52" y="146.0332">Assistant RH</text></g><g id="elem_AuthRH"><ellipse cx="643.4277" cy="102.0855" fill="#F1F1F1" rx="68.4277" ry="16.0855" style="stroke:#181818;stroke-width:0.5;"/><text fill="#000000" font-family="sans-serif" font-size="14" lengthAdjust="spacing" textLength="83" x="598.9277" y="106.6021">S'authentifier</text></g><g id="elem_G&#233;rer informations conducteurs"><ellipse cx="339.7783" cy="149.9557" fill="#F1F1F1" rx="117.7783" ry="25.9557" style="stroke:#181818;stroke-width:0.5;"/><text fill="#000000" font-family="sans-serif" font-size="14" lengthAdjust="spacing" textLength="200" x="239.7783" y="153.6842">G&#233;rer informations conducteurs</text></g><g id="elem_G&#233;rer cong&#233;s conducteurs"><ellipse cx="340.1395" cy="66.1279" fill="#F1F1F1" rx="103.6395" ry="23.1279" style="stroke:#181818;stroke-width:0.5;"/><text fill="#000000" font-family="sans-serif" font-size="14" lengthAdjust="spacing" textLength="169" x="255.6395" y="69.8564">G&#233;rer cong&#233;s conducteurs</text></g><!--link Conducteur to Consulter missions--><g id="link_Conducteur_Consulter missions"><path d="M129.2,1395.2 C154.5,1410.72 189.44,1430.82 222,1445 C242.31,1453.84 259.6841,1459.8825 279.9741,1465.9825 " fill="none" id="Conducteur-to-Consulter missions" style="stroke:#181818;stroke-width:1.0;"/><polygon fill="#181818" points="285.72,1467.71,278.2527,1461.2882,280.9317,1466.2704,275.9494,1468.9494,285.72,1467.71" style="stroke:#181818;stroke-width:1.0;"/></g><!--link Conducteur to G?olocalisation GPS--><g id="link_Conducteur_G&#233;olocalisation GPS"><path d="M129.03,1377.27 C165.13,1382.56 215.7634,1389.9602 261.0834,1396.6002 " fill="none" id="Conducteur-to-G&#233;olocalisation GPS" style="stroke:#181818;stroke-width:1.0;"/><polygon fill="#181818" points="267.02,1397.47,258.6949,1392.2076,262.0728,1396.7452,257.5352,1400.1231,267.02,1397.47" style="stroke:#181818;stroke-width:1.0;"/></g><!--link Conducteur to Valider ?tapes--><g id="link_Conducteur_Valider &#233;tapes"><path d="M129.03,1366.87 C168.4,1361.27 226.1699,1353.0555 273.0999,1346.3755 " fill="none" id="Conducteur-to-Valider &#233;tapes" style="stroke:#181818;stroke-width:1.0;"/><polygon fill="#181818" points="279.04,1345.53,269.5661,1342.8382,274.0899,1346.2346,270.6935,1350.7584,279.04,1345.53" style="stroke:#181818;stroke-width:1.0;"/></g><!--link Conducteur to Cl?turer mission--><g id="link_Conducteur_Cl&#244;turer mission"><path d="M129.03,1350.21 C154.39,1335.5 189.48,1316.4 222,1303 C243.27,1294.23 261.7537,1288.2331 282.6437,1282.3631 " fill="none" id="Conducteur-to-Cl&#244;turer mission" style="stroke:#181818;stroke-width:1.0;"/><polygon fill="#181818" points="288.42,1280.74,278.6735,1279.3238,283.6064,1282.0926,280.8376,1287.0255,288.42,1280.74" style="stroke:#181818;stroke-width:1.0;"/></g><!--link Consulter missions to AuthMobile--><g id="link_Consulter missions_AuthMobile"><path d="M395.59,1467.93 C437.2,1456.55 495.56,1439.13 545,1419 C570.02,1408.81 592.0301,1397.4449 611.3501,1386.7549 " fill="none" id="Consulter missions-to-AuthMobile" style="stroke:#181818;stroke-width:1.0;stroke-dasharray:7.0,7.0;"/><polygon fill="#181818" points="616.6,1383.85,606.7885,1384.7073,612.2251,1386.2707,610.6617,1391.7072,616.6,1383.85" style="stroke:#181818;stroke-width:1.0;"/><text fill="#000000" font-family="sans-serif" font-size="13" lengthAdjust="spacing" textLength="55" x="489" y="1415.4951">&#171;include&#187;</text></g><!--link G?olocalisation GPS to AuthMobile--><g id="link_G&#233;olocalisation GPS_AuthMobile"><path d="M419.58,1400.08 C457.53,1396.01 503.69,1390.71 545,1385 C558.93,1383.07 568.0183,1381.7065 581.9883,1379.4265 " fill="none" id="G&#233;olocalisation GPS-to-AuthMobile" style="stroke:#181818;stroke-width:1.0;stroke-dasharray:7.0,7.0;"/><polygon fill="#181818" points="587.91,1378.46,578.3832,1375.9619,582.9753,1379.2654,579.6718,1383.8574,587.91,1378.46" style="stroke:#181818;stroke-width:1.0;"/><text fill="#000000" font-family="sans-serif" font-size="13" lengthAdjust="spacing" textLength="55" x="489" y="1381.4951">&#171;include&#187;</text></g><!--link Valider ?tapes to AuthMobile--><g id="link_Valider &#233;tapes_AuthMobile"><path d="M404.94,1343.79 C456.8,1349.29 523.4735,1356.3669 574.7435,1361.8069 " fill="none" id="Valider &#233;tapes-to-AuthMobile" style="stroke:#181818;stroke-width:1.0;stroke-dasharray:7.0,7.0;"/><polygon fill="#181818" points="580.71,1362.44,572.1823,1357.5127,575.7379,1361.9124,571.3382,1365.4681,580.71,1362.44" style="stroke:#181818;stroke-width:1.0;"/><text fill="#000000" font-family="sans-serif" font-size="13" lengthAdjust="spacing" textLength="55" x="489" y="1349.4951">&#171;include&#187;</text></g><!--link Cl?turer mission to AuthMobile--><g id="link_Cl&#244;turer mission_AuthMobile"><path d="M391.86,1280.81 C433.48,1291.75 493.63,1308.59 545,1327 C567.9,1335.21 587.6462,1343.6406 606.6862,1352.2806 " fill="none" id="Cl&#244;turer mission-to-AuthMobile" style="stroke:#181818;stroke-width:1.0;stroke-dasharray:7.0,7.0;"/><polygon fill="#181818" points="612.15,1354.76,605.6073,1347.3984,607.5969,1352.6939,602.3014,1354.6835,612.15,1354.76" style="stroke:#181818;stroke-width:1.0;"/><text fill="#000000" font-family="sans-serif" font-size="13" lengthAdjust="spacing" textLength="55" x="489" y="1305.4951">&#171;include&#187;</text></g><!--link Client to Passer commande--><g id="link_Client_Passer commande"><path d="M119.79,1122.03 C156.03,1127.48 215.9566,1136.4982 266.0566,1144.0282 " fill="none" id="Client-to-Passer commande" style="stroke:#181818;stroke-width:1.0;"/><polygon fill="#181818" points="271.99,1144.92,263.6845,1139.6268,267.0455,1144.1768,262.4954,1147.5379,271.99,1144.92" style="stroke:#181818;stroke-width:1.0;"/></g><!--link Client to Confirmer commande--><g id="link_Client_Confirmer commande"><path d="M119.79,1113.97 C154.6,1108.73 210.7968,1100.2827 260.0468,1092.8727 " fill="none" id="Client-to-Confirmer commande" style="stroke:#181818;stroke-width:1.0;"/><polygon fill="#181818" points="265.98,1091.98,256.485,1089.3636,261.0357,1092.7239,257.6753,1097.2745,265.98,1091.98" style="stroke:#181818;stroke-width:1.0;"/></g><!--link Passer commande to AuthWeb--><g id="link_Passer commande_AuthWeb"><path d="M410.96,1146.03 C450.38,1140.82 500.49,1133.93 545,1127 C559.26,1124.78 568.7487,1123.208 583.0087,1120.728 " fill="none" id="Passer commande-to-AuthWeb" style="stroke:#181818;stroke-width:1.0;stroke-dasharray:7.0,7.0;"/><polygon fill="#181818" points="588.92,1119.7,579.3677,1117.3012,583.9939,1120.5567,580.7385,1125.1829,588.92,1119.7" style="stroke:#181818;stroke-width:1.0;"/><text fill="#000000" font-family="sans-serif" font-size="13" lengthAdjust="spacing" textLength="55" x="489" y="1123.4951">&#171;include&#187;</text></g><!--link Confirmer commande to AuthWeb--><g id="link_Confirmer commande_AuthWeb"><path d="M421.8,1088.77 C471.33,1093.54 527.8475,1098.9766 573.6775,1103.3766 " fill="none" id="Confirmer commande-to-AuthWeb" style="stroke:#181818;stroke-width:1.0;stroke-dasharray:7.0,7.0;"/><polygon fill="#181818" points="579.65,1103.95,571.0735,1099.1082,574.6729,1103.4722,570.3089,1107.0716,579.65,1103.95" style="stroke:#181818;stroke-width:1.0;"/><text fill="#000000" font-family="sans-serif" font-size="13" lengthAdjust="spacing" textLength="55" x="489" y="1092.4951">&#171;include&#187;</text></g><!--link Gestionnaire to G?rer chantiers--><g id="link_Gestionnaire_G&#233;rer chantiers"><path d="M106.93,760.71 C125.72,808.51 163.68,887.98 222,933 C238.11,945.44 252.7949,951.9154 272.1049,957.0954 " fill="none" id="Gestionnaire-to-G&#233;rer chantiers" style="stroke:#181818;stroke-width:1.0;"/><polygon fill="#181818" points="277.9,958.65,270.2437,952.4547,273.0707,957.3545,268.171,960.1816,277.9,958.65" style="stroke:#181818;stroke-width:1.0;"/></g><!--link Gestionnaire to Planifier tourn?es--><g id="link_Gestionnaire_Planifier tourn&#233;es"><path d="M120.11,760.77 C143.63,792.43 180.37,835.66 222,862 C239.42,873.02 254.6672,879.2247 274.0472,884.7147 " fill="none" id="Gestionnaire-to-Planifier tourn&#233;es" style="stroke:#181818;stroke-width:1.0;"/><polygon fill="#181818" points="279.82,886.35,272.251,880.0484,275.0093,884.9872,270.0705,887.7455,279.82,886.35" style="stroke:#181818;stroke-width:1.0;"/></g><!--link Gestionnaire to Optimiser transferts--><g id="link_Gestionnaire_Optimiser transferts"><path d="M132.77,744.34 C157.83,758.44 191.16,776.12 222,789 C242.44,797.54 259.8477,803.5106 280.1177,809.6506 " fill="none" id="Gestionnaire-to-Optimiser transferts" style="stroke:#181818;stroke-width:1.0;"/><polygon fill="#181818" points="285.86,811.39,278.4061,804.9527,281.0747,809.9405,276.0869,812.6091,285.86,811.39" style="stroke:#181818;stroke-width:1.0;"/></g><!--link Gestionnaire to Visualiser KPI--><g id="link_Gestionnaire_Visualiser KPI"><path d="M132.52,726.46 C172.18,731.94 227.8165,739.6389 273.4165,745.9389 " fill="none" id="Gestionnaire-to-Visualiser KPI" style="stroke:#181818;stroke-width:1.0;"/><polygon fill="#181818" points="279.36,746.76,270.9921,741.5659,274.407,746.0757,269.8973,749.4906,279.36,746.76" style="stroke:#181818;stroke-width:1.0;"/></g><!--link Gestionnaire to Carte interactive--><g id="link_Gestionnaire_Carte interactive"><path d="M132.52,715.38 C170.82,709.93 223.6298,702.4152 268.6798,696.0052 " fill="none" id="Gestionnaire-to-Carte interactive" style="stroke:#181818;stroke-width:1.0;"/><polygon fill="#181818" points="274.62,695.16,265.1463,692.4677,269.6699,695.8643,266.2732,700.3879,274.62,695.16" style="stroke:#181818;stroke-width:1.0;"/></g><!--link Gestionnaire to Traiter commandes--><g id="link_Gestionnaire_Traiter commandes"><path d="M132.69,696.9 C157.71,682.35 191.04,664.15 222,651 C242.39,642.34 259.7866,636.346 280.0666,630.216 " fill="none" id="Gestionnaire-to-Traiter commandes" style="stroke:#181818;stroke-width:1.0;"/><polygon fill="#181818" points="285.81,628.48,276.0376,627.2551,281.0239,629.9267,278.3523,634.913,285.81,628.48" style="stroke:#181818;stroke-width:1.0;"/></g><!--link Gestionnaire to Affecter conducteurs--><g id="link_Gestionnaire_Affecter conducteurs"><path d="M119.28,681.43 C142.68,649.05 179.7,604.31 222,577 C238.02,566.66 251.4048,560.7927 269.4948,555.2327 " fill="none" id="Gestionnaire-to-Affecter conducteurs" style="stroke:#181818;stroke-width:1.0;"/><polygon fill="#181818" points="275.23,553.47,265.452,552.2906,270.4506,554.9389,267.8023,559.9376,275.23,553.47" style="stroke:#181818;stroke-width:1.0;"/></g><!--link Gestionnaire to Affecter v?hicules--><g id="link_Gestionnaire_Affecter v&#233;hicules"><path d="M106.1,681.28 C124.34,632.06 162.08,548.94 222,502 C237.1,490.17 250.378,483.9683 268.698,478.7683 " fill="none" id="Gestionnaire-to-Affecter v&#233;hicules" style="stroke:#181818;stroke-width:1.0;"/><polygon fill="#181818" points="274.47,477.13,264.7198,475.7395,269.66,478.4953,266.9042,483.4355,274.47,477.13" style="stroke:#181818;stroke-width:1.0;"/></g><!--link G?rer chantiers to AuthDesktop--><g id="link_G&#233;rer chantiers_AuthDesktop"><path d="M396.27,956.95 C441.34,945.39 504.03,923.15 545,883 C590.48,838.43 620.7048,773.9153 633.8048,742.5953 " fill="none" id="G&#233;rer chantiers-to-AuthDesktop" style="stroke:#181818;stroke-width:1.0;stroke-dasharray:7.0,7.0;"/><polygon fill="#181818" points="636.12,737.06,628.957,743.8195,634.1907,741.6728,636.3374,746.9065,636.12,737.06" style="stroke:#181818;stroke-width:1.0;"/><text fill="#000000" font-family="sans-serif" font-size="13" lengthAdjust="spacing" textLength="55" x="489" y="879.4951">&#171;include&#187;</text></g><!--link Planifier tourn?es to AuthDesktop--><g id="link_Planifier tourn&#233;es_AuthDesktop"><path d="M399.37,886.22 C442.41,875.53 500.9,856.65 545,826 C581.56,800.59 611.0955,764.2064 627.7055,741.7164 " fill="none" id="Planifier tourn&#233;es-to-AuthDesktop" style="stroke:#181818;stroke-width:1.0;stroke-dasharray:7.0,7.0;"/><polygon fill="#181818" points="631.27,736.89,622.7056,741.7532,628.2996,740.912,629.1408,746.5059,631.27,736.89" style="stroke:#181818;stroke-width:1.0;"/><text fill="#000000" font-family="sans-serif" font-size="13" lengthAdjust="spacing" textLength="55" x="489" y="822.4951">&#171;include&#187;</text></g><!--link Optimiser transferts to AuthDesktop--><g id="link_Optimiser transferts_AuthDesktop"><path d="M413.62,816.61 C453.42,809.93 503.04,799.04 545,782 C573.86,770.28 598.912,753.7387 617.862,739.8387 " fill="none" id="Optimiser transferts-to-AuthDesktop" style="stroke:#181818;stroke-width:1.0;stroke-dasharray:7.0,7.0;"/><polygon fill="#181818" points="622.7,736.29,613.0771,738.3878,618.6683,739.2473,617.8088,744.8385,622.7,736.29" style="stroke:#181818;stroke-width:1.0;"/><text fill="#000000" font-family="sans-serif" font-size="13" lengthAdjust="spacing" textLength="55" x="489" y="778.4951">&#171;include&#187;</text></g><!--link Visualiser KPI to AuthDesktop--><g id="link_Visualiser KPI_AuthDesktop"><path d="M408.94,757.8 C448.81,758.34 500.03,757.11 545,750 C565.41,746.77 581.8313,742.3174 599.8313,736.3874 " fill="none" id="Visualiser KPI-to-AuthDesktop" style="stroke:#181818;stroke-width:1.0;stroke-dasharray:7.0,7.0;"/><polygon fill="#181818" points="605.53,734.51,595.7303,733.527,600.7811,736.0745,598.2335,741.1253,605.53,734.51" style="stroke:#181818;stroke-width:1.0;"/><text fill="#000000" font-family="sans-serif" font-size="13" lengthAdjust="spacing" textLength="55" x="489" y="746.4951">&#171;include&#187;</text></g><!--link Carte interactive to AuthDesktop--><g id="link_Carte interactive_AuthDesktop"><path d="M408.29,693.81 C460.27,699.85 525.6201,707.4272 575.8601,713.2672 " fill="none" id="Carte interactive-to-AuthDesktop" style="stroke:#181818;stroke-width:1.0;stroke-dasharray:7.0,7.0;"/><polygon fill="#181818" points="581.82,713.96,573.3421,708.9476,576.8534,713.3827,572.4183,716.8941,581.82,713.96" style="stroke:#181818;stroke-width:1.0;"/><text fill="#000000" font-family="sans-serif" font-size="13" lengthAdjust="spacing" textLength="55" x="489" y="700.4951">&#171;include&#187;</text></g><!--link Traiter commandes to AuthDesktop--><g id="link_Traiter commandes_AuthDesktop"><path d="M393.1,628.61 C434.65,640.67 494.1,658.86 545,678 C567.86,686.6 587.6231,695.2438 606.6731,704.0438 " fill="none" id="Traiter commandes-to-AuthDesktop" style="stroke:#181818;stroke-width:1.0;stroke-dasharray:7.0,7.0;"/><polygon fill="#181818" points="612.12,706.56,605.6271,699.1545,607.5809,704.4632,602.2722,706.417,612.12,706.56" style="stroke:#181818;stroke-width:1.0;"/><text fill="#000000" font-family="sans-serif" font-size="13" lengthAdjust="spacing" textLength="55" x="489" y="655.4951">&#171;include&#187;</text></g><!--link Affecter conducteurs to AuthDesktop--><g id="link_Affecter conducteurs_AuthDesktop"><path d="M398.39,554.83 C417.75,560.7 439.2,568.17 458,577 C528.98,610.34 593.5838,670.9811 623.1538,700.9211 " fill="none" id="Affecter conducteurs-to-AuthDesktop" style="stroke:#181818;stroke-width:1.0;stroke-dasharray:7.0,7.0;"/><polygon fill="#181818" points="627.37,705.19,623.8917,695.9758,623.8565,701.6326,618.1998,701.5974,627.37,705.19" style="stroke:#181818;stroke-width:1.0;"/><text fill="#000000" font-family="sans-serif" font-size="13" lengthAdjust="spacing" textLength="55" x="489" y="592.4951">&#171;include&#187;</text></g><!--link Affecter v?hicules to AuthDesktop--><g id="link_Affecter v&#233;hicules_AuthDesktop"><path d="M397.7,479.39 C417.41,484.87 439.26,492.31 458,502 C501.6,524.53 511.9,533.77 545,570 C584.99,613.77 616.5707,670.4221 631.6107,699.4621 " fill="none" id="Affecter v&#233;hicules-to-AuthDesktop" style="stroke:#181818;stroke-width:1.0;stroke-dasharray:7.0,7.0;"/><polygon fill="#181818" points="634.37,704.79,633.7829,694.9587,632.0706,700.3501,626.6791,698.6378,634.37,704.79" style="stroke:#181818;stroke-width:1.0;"/><text fill="#000000" font-family="sans-serif" font-size="13" lengthAdjust="spacing" textLength="55" x="489" y="515.4951">&#171;include&#187;</text></g><!--link Assistant to G?rer disponibilit? v?hicules--><g id="link_Assistant_G&#233;rer disponibilit&#233; v&#233;hicules"><path d="M161.2,322.98 C188.5,326.98 214.3932,330.7615 243.5132,335.0215 " fill="none" id="Assistant-to-G&#233;rer disponibilit&#233; v&#233;hicules" style="stroke:#181818;stroke-width:1.0;"/><polygon fill="#181818" points="249.45,335.89,241.1238,330.6294,244.5027,335.1662,239.9658,338.5451,249.45,335.89" style="stroke:#181818;stroke-width:1.0;"/></g><!--link Assistant to G?rer ?quipements--><g id="link_Assistant_G&#233;rer &#233;quipements"><path d="M161.2,301.36 C196.04,295.41 232.3256,289.21 266.8756,283.31 " fill="none" id="Assistant-to-G&#233;rer &#233;quipements" style="stroke:#181818;stroke-width:1.0;"/><polygon fill="#181818" points="272.79,282.3,263.2451,279.872,267.8613,283.1417,264.5917,287.7579,272.79,282.3" style="stroke:#181818;stroke-width:1.0;"/></g><!--link G?rer disponibilit? v?hicules to AuthMateriel--><g id="link_G&#233;rer disponibilit&#233; v&#233;hicules_AuthMateriel"><path d="M431.95,336.5 C467.27,331.53 508.05,325.66 545,320 C558.73,317.9 567.6187,316.4883 581.4387,314.2283 " fill="none" id="G&#233;rer disponibilit&#233; v&#233;hicules-to-AuthMateriel" style="stroke:#181818;stroke-width:1.0;stroke-dasharray:7.0,7.0;"/><polygon fill="#181818" points="587.36,313.26,577.8324,310.7649,582.4255,314.0669,579.1235,318.6601,587.36,313.26" style="stroke:#181818;stroke-width:1.0;"/><text fill="#000000" font-family="sans-serif" font-size="13" lengthAdjust="spacing" textLength="55" x="489" y="316.4951">&#171;include&#187;</text></g><!--link G?rer ?quipements to AuthMateriel--><g id="link_G&#233;rer &#233;quipements_AuthMateriel"><path d="M415.14,279.11 C466.05,284.69 526.8756,291.3476 574.8756,296.5976 " fill="none" id="G&#233;rer &#233;quipements-to-AuthMateriel" style="stroke:#181818;stroke-width:1.0;stroke-dasharray:7.0,7.0;"/><polygon fill="#181818" points="580.84,297.25,572.3283,292.2952,575.8696,296.7064,571.4584,300.2477,580.84,297.25" style="stroke:#181818;stroke-width:1.0;"/><text fill="#000000" font-family="sans-serif" font-size="13" lengthAdjust="spacing" textLength="55" x="489" y="284.4951">&#171;include&#187;</text></g><!--link AssistantRH to G?rer informations conducteurs--><g id="link_AssistantRH_G&#233;rer informations conducteurs"><path d="M132.25,116.38 C162.5,121.3 199.6978,127.3467 238.7378,133.6967 " fill="none" id="AssistantRH-to-G&#233;rer informations conducteurs" style="stroke:#181818;stroke-width:1.0;"/><polygon fill="#181818" points="244.66,134.66,236.4189,129.267,239.7249,133.8573,235.1346,137.1632,244.66,134.66" style="stroke:#181818;stroke-width:1.0;"/></g><!--link AssistantRH to G?rer cong?s conducteurs--><g id="link_AssistantRH_G&#233;rer cong&#233;s conducteurs"><path d="M132.25,102.98 C166.23,96.9 210.5437,88.9763 252.9837,81.3863 " fill="none" id="AssistantRH-to-G&#233;rer cong&#233;s conducteurs" style="stroke:#181818;stroke-width:1.0;"/><polygon fill="#181818" points="258.89,80.33,249.3264,77.9769,253.9681,81.2102,250.7348,85.852,258.89,80.33" style="stroke:#181818;stroke-width:1.0;"/></g><!--link G?rer informations conducteurs to AuthRH--><g id="link_G&#233;rer informations conducteurs_AuthRH"><path d="M436.4,134.81 C485.74,126.96 538.3347,118.5839 580.3947,111.8839 " fill="none" id="G&#233;rer informations conducteurs-to-AuthRH" style="stroke:#181818;stroke-width:1.0;stroke-dasharray:7.0,7.0;"/><polygon fill="#181818" points="586.32,110.94,576.8028,108.4056,581.3823,111.7266,578.0613,116.306,586.32,110.94" style="stroke:#181818;stroke-width:1.0;"/><text fill="#000000" font-family="sans-serif" font-size="13" lengthAdjust="spacing" textLength="55" x="489" y="114.4951">&#171;include&#187;</text></g><!--link G?rer cong?s conducteurs to AuthRH--><g id="link_G&#233;rer cong&#233;s conducteurs_AuthRH"><path d="M431.46,76.8 C480.2,82.62 533.0523,88.9288 576.1923,94.0788 " fill="none" id="G&#233;rer cong&#233;s conducteurs-to-AuthRH" style="stroke:#181818;stroke-width:1.0;stroke-dasharray:7.0,7.0;"/><polygon fill="#181818" points="582.15,94.79,573.6876,89.7514,577.1853,94.1973,572.7393,97.695,582.15,94.79" style="stroke:#181818;stroke-width:1.0;"/><text fill="#000000" font-family="sans-serif" font-size="13" lengthAdjust="spacing" textLength="55" x="489" y="80.4951">&#171;include&#187;</text></g><!--SRC=[bLNDYjim4BxdAKGktHns7w0iWR25f9Ib8IdRizQMas5boIl9Mqh90_dUD_2BTMGvYM99DeKSmiptpSytCp9dXI564WM7eo4vA9OPa6Actq1KLD6IqCn8jJU_EIFq5zEoPBEPHL5nGDDyLLKSCcf9v5c-0cTpycT678qyIP7NcM6rGjFT_XEjpP490mKmjI1KanKQ7Cq24AvhRfWY9MYD8VN2cjTj8xdCA0Vj4gst-yxnWgOSqMrZQCKS-8ctVqsjhZ6i5N_NKiZz_JALQuXAfHxY8fK42HE5nIeX3mzBJnlocJm-WiXudRFbCYd996jOvIGXh7cSShhPZIqzCFAJlTvi10TSW95jGBprRgdMc3QJPKb5pXQzK0MeSc2sKdT1dSmHekzEnWY8bqwneeWoOPmHmYbvCr-OVZEoyYLQCsrTWk8rZWZLC_jji3FAZXH1JBb3s78gEWRUTwr4s_G7yhqoWDEqTaM5BfWopl42khOBXPvlswzESQeC8o1mER4s-71p-A4e6AzpHryL1RROcS-BFt1yjCqHifex0lxyJY_t5dGIeXAjXS1Kho4oR3x4HDK8OL5vGbXAhn5a862ersK9-_K8DpSctZGhgkGqRI3hD27KU9eJ2ZxDYQh_7pHl51EizEttaoRFrE0OWN7_5PYlyC7LI3DabPSWyBz2MZ7lxl_i6_kiKgmJWtfhaeEkf01yk04p3jRf36gRznegLcB0yvfTI_6FT3HQd1A9FHtj-idfEuf-3eFmKxJqN7QRn22imrT_jndHtpdxoa0KKfLTU1qyaESZbkBGDe7R5tEtkP5pB6gAayuo6VMYA8PCZI0MFiqxpVu1]--></g></svg>